{
  "accessors": [
    {
      "bufferView": 2,
      "componentType": 5126,
      "count": 13,
      "max": [
        18.0,
        10.0,
        138.0
      ],
      "min": [
        -19.0,
        -1.0,
        72.0
      ],
      "type": "VEC3"
    },
    {
      "bufferView": 2,
      "byteOffset": 156,
      "componentType": 5126,
      "count": 13,
      "max": [
        0.6778814196586609,
        0.9929050803184509,
        0.6758960485458374
      ],
      "min": [
        -0.6722249984741211,
        0.63868248462677,
        -0.4128972887992859
      ],
      "type": "VEC3"
    },
    {
      "bufferView": 1,
      "componentType": 5126,
      "count": 13,
      "max": [
        0.9997000098228455,
        0.9994999766349792
      ],
      "min": [
        0.0005000000237487257,
        0.0005000000237487257
      ],
      "type": "VEC2"
    },
    {
      "bufferView": 0,
      "componentType": 5125,
      "count": 42,
      "type": "SCALAR"
    },
    {
      "bufferView": 2,
      "byteOffset": 312,
      "componentType": 5126,
      "count": 26,
      "max": [
        35.0,
        -12.0,
        32.0
      ],
      "min": [
        -36.0,
        -32.0,
        13.0
      ],
      "type": "VEC3"
    },
    {
      "bufferView": 2,
      "byteOffset": 624,
      "componentType": 5126,
      "count": 26,
      "max": [
        0.753693699836731,
        0.5587010979652405,
        0.9382767677307129
      ],
      "min": [
        -0.753693699836731,
        -0.8479982614517212,
        0.03800247609615326
      ],
      "type": "VEC3"
    },
    {
      "bufferView": 1,
      "byteOffset": 104,
      "componentType": 5126,
      "count": 26,
      "max": [
        0.8532999753952026,
        0.8578000068664551
      ],
      "min": [
        0.16940000653266907,
        0.20730000734329224
      ],
      "type": "VEC2"
    },
    {
      "bufferView": 0,
      "byteOffset": 168,
      "componentType": 5125,
      "count": 78,
      "type": "SCALAR"
    },
    {
      "bufferView": 2,
      "byteOffset": 936,
      "componentType": 5126,
      "count": 851,
      "max": [
        51.0,
        17.0,
        171.0
      ],
      "min": [
        -52.0,
        -70.0,
        9.0
      ],
      "type": "VEC3"
    },
    {
      "bufferView": 2,
      "byteOffset": 11148,
      "componentType": 5126,
      "count": 851,
      "max": [
        0.9995588660240173,
        0.9942095875740051,
        0.9968876838684082
      ],
      "min": [
        -0.9995588660240173,
        -1.0,
        -1.0
      ],
      "type": "VEC3"
    },
    {
      "bufferView": 1,
      "byteOffset": 312,
      "componentType": 5126,
      "count": 851,
      "max": [
        1.0,
        1.0
      ],
      "min": [
        0.004399999976158142,
        0.010300000198185444
      ],
      "type": "VEC2"
    },
    {
      "bufferView": 0,
      "byteOffset": 480,
      "componentType": 5125,
      "count": 2076,
      "type": "SCALAR"
    }
  ],
  "asset": {
    "extras": {
      "author": "MatiasH290 (https://sketchfab.com/matias029)",
      "license": "CC-BY-4.0 (http://creativecommons.org/licenses/by/4.0/)",
      "source": "https://sketchfab.com/3d-models/crash-bandicoot-442556bf988345afbbdc1f398c169a30",
      "title": "Crash bandicoot"
    },
    "generator": "Sketchfab-12.66.0",
    "version": "2.0"
  },
  "bufferViews": [
    {
      "buffer": 0,
      "byteLength": 8784,
      "name": "floatBufferViews",
      "target": 34963
    },
    {
      "buffer": 0,
      "byteLength": 7120,
      "byteOffset": 8784,
      "byteStride": 8,
      "name": "floatBufferViews",
      "target": 34962
    },
    {
      "buffer": 0,
      "byteLength": 21360,
      "byteOffset": 15904,
      "byteStride": 12,
      "name": "floatBufferViews",
      "target": 34962
    }
  ],
  "buffers": [
    {
      "byteLength": 37264,
      "uri": "scene.bin"
    }
  ],
  "images": [
    {
      "uri": "textures/back_baseColor.png"
    },
    {
      "uri": "textures/color_pallete_baseColor.png"
    },
    {
      "uri": "textures/shoes_baseColor.png"
    }
  ],
  "materials": [
    {
      "doubleSided": true,
      "name": "back",
      "pbrMetallicRoughness": {
        "baseColorTexture": {
          "index": 0
        },
        "metallicFactor": 0.0,
        "roughnessFactor": 0.6
      }
    },
    {
      "doubleSided": true,
      "name": "color_pallete",
      "pbrMetallicRoughness": {
        "baseColorTexture": {
          "index": 1
        },
        "metallicFactor": 0.0,
        "roughnessFactor": 0.6
      }
    },
    {
      "doubleSided": true,
      "name": "shoes",
      "pbrMetallicRoughness": {
        "baseColorTexture": {
          "index": 2
        },
        "metallicFactor": 0.0,
        "roughnessFactor": 0.6
      }
    }
  ],
  "meshes": [
    {
      "name": "Object_0",
      "primitives": [
        {
          "attributes": {
            "NORMAL": 1,
            "POSITION": 0,
            "TEXCOORD_0": 2
          },
          "indices": 3,
          "material": 0,
          "mode": 4
        }
      ]
    },
    {
      "name": "Object_1",
      "primitives": [
        {
          "attributes": {
            "NORMAL": 5,
            "POSITION": 4,
            "TEXCOORD_0": 6
          },
          "indices": 7,
          "material": 2,
          "mode": 4
        }
      ]
    },
    {
      "name": "Object_2",
      "primitives": [
        {
          "attributes": {
            "NORMAL": 9,
            "POSITION": 8,
            "TEXCOORD_0": 10
          },
          "indices": 11,
          "material": 1,
          "mode": 4
        }
      ]
    }
  ],
  "nodes": [
    {
      "children": [
        1
      ],
      "matrix": [
        1.0,
        0.0,
        0.0,
        0.0,
        0.0,
        2.220446049250313e-16,
        -1.0,
        0.0,
        0.0,
        1.0,
        2.220446049250313e-16,
        0.0,
        0.0,
        0.0,
        0.0,
        1.0
      ],
      "name": "Sketchfab_model"
    },
    {
      "children": [
        2,
        3,
        4
      ],
      "name": "9af9055c219d477c8348a61881cff3f6.obj.cleaner.materialmerger.gles"
    },
    {
      "mesh": 0,
      "name": "Object_2"
    },
    {
      "mesh": 1,
      "name": "Object_3"
    },
    {
      "mesh": 2,
      "name": "Object_4"
    }
  ],
  "samplers": [
    {
      "magFilter": 9729,
      "minFilter": 9987,
      "wrapS": 10497,
      "wrapT": 10497
    }
  ],
  "scene": 0,
  "scenes": [
    {
      "name": "Sketchfab_Scene",
      "nodes": [
        0
      ]
    }
  ],
  "textures": [
    {
      "sampler": 0,
      "source": 0
    },
    {
      "sampler": 0,
      "source": 1
    },
    {
      "sampler": 0,
      "source": 2
    }
  ]
}
